<svg xmlns="http://www.w3.org/2000/svg" viewBox="0 0 520 430"><path d="M215 370c62-124 137-223 252-304" fill="none" stroke="#78401f" stroke-width="8"/><g><path d="M320 250c-68 3-84-65-18-82 52-14 82 29 18 82z" fill="#dc6a23"/><path d="M401 170c-62 6-83-51-29-77 49-23 86 17 29 77z" fill="#ba4420"/><path d="M260 315c-58 2-70-53-15-70 46-14 71 24 15 70z" fill="#e99a2f"/><path d="M455 105c-48 7-64-36-24-56 39-19 68 12 24 56z" fill="#d77b24"/></g><g fill="#b64d21" opacity=".6"><path d="M145 120c35 15 44 44 12 69-34-14-41-42-12-69z"/><path d="M110 245c33 12 43 36 16 62-33-10-44-34-16-62z"/></g></svg>