<svg xmlns="http://www.w3.org/2000/svg" viewBox="0 0 560 430"><defs><linearGradient id="g" x1="0" y1="0" x2="1" y2="1"><stop stop-color="#f4d56b"/><stop offset="1" stop-color="#9f7610"/></linearGradient></defs><g fill="none" stroke="url(#g)" stroke-width="5"><rect x="238" y="78" width="248" height="150" rx="18"/><path d="M304 228v42h116v-42M270 305h190"/><rect x="180" y="270" width="70" height="115" rx="15"/><path d="M200 292h30M200 320h30"/><path d="M280 55h185M260 350h230" stroke-width="10" opacity=".5"/></g><g fill="#e9c756"><circle cx="488" cy="70" r="9"/><circle cx="205" cy="245" r="7"/><path d="m175 100 10 20 22 3-16 15 4 22-20-11-20 11 4-22-16-15 22-3z"/></g></svg>