<svg xmlns="http://www.w3.org/2000/svg" viewBox="0 0 520 430"><defs><linearGradient id="tree" x1="0" y1="0" x2="1" y2="1"><stop stop-color="#0c7a45"/><stop offset="1" stop-color="#06452a"/></linearGradient><linearGradient id="gold"><stop stop-color="#ffe4a1"/><stop offset="1" stop-color="#c79224"/></linearGradient></defs><path d="M365 45 280 160h52l-82 105h72l-94 118h255l-94-118h72l-82-105h52z" fill="url(#tree)" stroke="#e8c35e" stroke-width="4"/><g fill="url(#gold)"><circle cx="345" cy="154" r="10"/><circle cx="315" cy="237" r="12"/><circle cx="400" cy="260" r="11"/><circle cx="355" cy="330" r="12"/><path d="m365 20 8 17 18 2-13 13 3 18-16-9-16 9 3-18-13-13 18-2z"/></g><path d="M235 365h260" stroke="#fff" stroke-width="5" opacity=".8"/><g stroke="#d81e3c" stroke-width="4" fill="none"><path d="M255 95c-60 20-88 54-105 96"/><circle cx="148" cy="205" r="20"/><path d="M148 185v-23"/></g></svg>